<svg xmlns="http://www.w3.org/2000/svg" width="1200" height="630" viewBox="0 0 1200 630" role="img" aria-label="Unofficial Cursor News">
  <rect width="1200" height="630" fill="#0a0a0f"/>
  <rect x="80" y="80" width="1040" height="3" fill="#d4b87a" opacity="0.6"/>
  <g transform="translate(100, 165) scale(3.2)">
    <polygon points="50,5 92.5,29.5 92.5,70.5 50,95 7.5,70.5 7.5,29.5" fill="#1a2a3e"/>
    <polygon points="50,9.5 88.5,31.5 88.5,68.5 50,90.5 11.5,68.5 11.5,31.5" fill="#0a0a0f"/>
    <rect x="18" y="17" width="64" height="5.5" fill="#d4b87a"/>
    <line x1="57.5" y1="27" x2="57.5" y2="83" stroke="#f0ebe3" stroke-width="1.25" stroke-linecap="round"/>
    <rect x="19" y="31" width="32" height="2.4" rx="0.4" fill="#f0ebe3"/>
    <rect x="19" y="38.5" width="32" height="2.4" rx="0.4" fill="#f0ebe3"/>
    <rect x="19" y="46" width="32" height="2.4" rx="0.4" fill="#f0ebe3"/>
    <text x="35" y="73.5" font-family="Courier New, monospace" font-size="15" font-weight="600" fill="#d4b87a" text-anchor="middle">{  }</text>
    <text x="74" y="74" font-family="Georgia, Times New Roman, serif" font-size="36" font-weight="700" fill="#f0ebe3" text-anchor="middle">N</text>
  </g>
  <text x="480" y="260" font-family="Georgia, Times New Roman, serif" font-size="58" font-weight="700" fill="#f0ebe3">Unofficial Cursor News</text>
  <text x="480" y="320" font-family="Arial, Helvetica, sans-serif" font-size="26" fill="#d4b87a" letter-spacing="2">CHANGELOG / RELEASES / COMMUNITY</text>
  <text x="480" y="380" font-family="Arial, Helvetica, sans-serif" font-size="22" fill="#8a8a9a">cursorunofficial.news - not affiliated with Anysphere</text>
  <rect x="80" y="547" width="1040" height="3" fill="#d4b87a" opacity="0.6"/>
</svg>
